<svg version="1.1" xmlns="http://www.w3.org/2000/svg" viewBox="0 0 909.5999755859375 483.4000701904297" width="909.5999755859375" height="483.4000701904297">
  <!-- svg-source:excalidraw -->
  
  <defs>
    <style>
      @font-face {
        font-family: "Virgil";
        src: url("https://excalidraw.com/Virgil.woff2");
      }
      @font-face {
        font-family: "Cascadia";
        src: url("https://excalidraw.com/Cascadia.woff2");
      }
    </style>
  </defs>
  <rect x="0" y="0" width="909.5999755859375" height="483.4000701904297" fill="#ffffff"></rect><g stroke-linecap="round" transform="translate(323.63340103625796 85.40000915527344) rotate(0 136.7833055853866 23.20000457763672)"><path d="M138.81 0 C184.84 5.97, 234.49 16.37, 271.67 25.35 M136.57 0.2 C164.8 4.75, 192.07 9.45, 273.07 24.59 M272.09 22.93 C220.45 33.04, 167.95 42.83, 138.16 46.68 M273.2 24.23 C235.65 31.46, 199.6 36.77, 136.09 46.51 M135.04 47.39 C107.21 42.08, 79.79 35.84, -0.97 25.58 M136.31 46 C95.39 39.75, 53.23 31.32, -0.42 23.24 M-1.13 25.68 C38.23 16.68, 78.18 8.85, 137.75 -1.25 M-0.33 24.25 C42.45 16.63, 87.25 9.78, 136.95 0.47" stroke="#000000" stroke-width="1" fill="none"></path></g><g transform="translate(393.06669187545754 94.95839223265699) rotate(0 67.3583239018925 12.566851474233673)"><text x="0" y="18.133702948467352" font-family="Virgil, Segoe UI Emoji" font-size="20.106962358773877px" fill="#000000" text-anchor="start" style="white-space: pre;" direction="ltr">Publicado Por</text></g><g stroke-linecap="round" transform="translate(25.199951171875 39.80000305175781) rotate(0 90.39999389648438 52.80000305175781)"><path d="M-1.94 0.2 C61.9 -1.34, 126.05 -0.03, 181.4 1 M-0.48 -0.8 C62.48 0.5, 126.91 0.3, 179.92 -0.87 M180.24 -0.26 C181.57 39.37, 180.69 75.71, 181.39 106.6 M180.64 -0.42 C181.3 28.47, 181 56.98, 180.2 106.17 M180.64 105.65 C122.36 102.53, 64.78 105.39, -0.37 106.02 M179.87 105.04 C112.51 106.32, 41.96 108.13, -0.78 106.06 M-1.81 106.88 C0.9 70.72, -0.41 37.58, 1.09 1.92 M-0.43 105.62 C1.27 65.05, -0.62 25.9, 0.81 -0.04" stroke="#000000" stroke-width="1" fill="none"></path></g><g transform="translate(34.799957275390625 10) rotate(0 48.5 12.5)"><text x="0" y="18" font-family="Virgil, Segoe UI Emoji" font-size="20px" fill="#000000" text-anchor="start" style="white-space: pre;" direction="ltr">Periodicos</text></g><g transform="translate(37.199951171875 42.80000305175781) rotate(0 71 49.5)"><text x="0" y="17.75" font-family="Virgil, Segoe UI Emoji" font-size="20px" fill="#000000" text-anchor="start" style="white-space: pre;" direction="ltr">id</text><text x="0" y="42.5" font-family="Virgil, Segoe UI Emoji" font-size="20px" fill="#000000" text-anchor="start" style="white-space: pre;" direction="ltr">nome_periodico</text><text x="0" y="67.25" font-family="Virgil, Segoe UI Emoji" font-size="20px" fill="#000000" text-anchor="start" style="white-space: pre;" direction="ltr">issn</text><text x="0" y="92" font-family="Virgil, Segoe UI Emoji" font-size="20px" fill="#000000" text-anchor="start" style="white-space: pre;" direction="ltr">id_editora</text></g><g stroke-linecap="round" transform="translate(689.199951171875 69.39999389648438) rotate(0 105.20001220703125 54)"><path d="M1.01 0.37 C68.94 -0.54, 136.22 1.16, 210.01 -1.21 M0.19 0.73 C62.23 1.17, 125.12 -0.15, 211.18 -0.86 M211.33 0.61 C209.32 27.48, 209.5 55.01, 210.25 108.01 M211.36 0.81 C211.01 24.32, 210.92 49.05, 211.31 107.64 M210.33 108.42 C166.31 110.9, 124.75 111.14, -1.71 109.01 M209.63 107.71 C155.09 109.19, 100.63 109.05, -0.57 108.63 M1.93 106.4 C1.39 66.28, 1.01 27.74, 1.7 -0.33 M0.83 108.36 C0.56 77.9, 0.15 45.76, 0.53 0.72" stroke="#000000" stroke-width="1" fill="none"></path></g><g transform="translate(694.7999267578125 40.399993896484375) rotate(0 42.5 12.5)"><text x="0" y="18" font-family="Virgil, Segoe UI Emoji" font-size="20px" fill="#000000" text-anchor="start" style="white-space: pre;" direction="ltr">Editoras</text></g><g transform="translate(702.7999267578125 74.80000305175781) rotate(0 66 49.5)"><text x="0" y="17.75" font-family="Virgil, Segoe UI Emoji" font-size="20px" fill="#000000" text-anchor="start" style="white-space: pre;" direction="ltr">id</text><text x="0" y="42.5" font-family="Virgil, Segoe UI Emoji" font-size="20px" fill="#000000" text-anchor="start" style="white-space: pre;" direction="ltr">nome_editora</text><text x="0" y="67.25" font-family="Virgil, Segoe UI Emoji" font-size="20px" fill="#000000" text-anchor="start" style="white-space: pre;" direction="ltr">pais</text><text x="0" y="92" font-family="Virgil, Segoe UI Emoji" font-size="20px" fill="#000000" text-anchor="start" style="white-space: pre;" direction="ltr"></text></g><g stroke-linecap="round" transform="translate(705.2000122070312 346.20008850097656) rotate(0 91.19998168945312 63.59999084472656)"><path d="M-1.9 -1.37 C36.38 -0.94, 75.93 2.88, 181.9 1.26 M-0.15 -0.07 C43.25 1.14, 86.08 0.22, 182.91 0.5 M182.15 0.58 C182.72 31.52, 181.7 68.58, 184.19 128.12 M181.96 0.92 C182.08 47.52, 182.56 93.99, 181.48 126.36 M181.05 128.42 C111.13 127.11, 36.47 128.84, 0.5 129.06 M182.89 126.81 C133.58 125.43, 85.26 126.32, -0.29 126.21 M0.5 128.43 C2.57 97.26, 0.89 67.23, 0.22 -0.17 M0.75 127.27 C1.24 88.46, 0.45 49.42, -0.36 -0.75" stroke="#000000" stroke-width="1" fill="none"></path></g><g transform="translate(707.5999755859375 315.6000518798828) rotate(0 35 12.5)"><text x="0" y="18" font-family="Virgil, Segoe UI Emoji" font-size="20px" fill="#000000" text-anchor="start" style="white-space: pre;" direction="ltr">Artigos</text></g><g transform="translate(720.3999633789062 354.80006408691406) rotate(0 81 49.5)"><text x="0" y="17.75" font-family="Virgil, Segoe UI Emoji" font-size="20px" fill="#000000" text-anchor="start" style="white-space: pre;" direction="ltr">id</text><text x="0" y="42.5" font-family="Virgil, Segoe UI Emoji" font-size="20px" fill="#000000" text-anchor="start" style="white-space: pre;" direction="ltr">titulo_artigo</text><text x="0" y="67.25" font-family="Virgil, Segoe UI Emoji" font-size="20px" fill="#000000" text-anchor="start" style="white-space: pre;" direction="ltr">subtitulo_artigo</text><text x="0" y="92" font-family="Virgil, Segoe UI Emoji" font-size="20px" fill="#000000" text-anchor="start" style="white-space: pre;" direction="ltr">id_editora</text></g><g stroke-linecap="round" transform="translate(10 335.8000030517578) rotate(0 87.60000610351562 59.60002136230469)"><path d="M1.43 1.16 C44.15 -2.11, 88.88 -1.2, 174.73 -1.97 M0.02 0.45 C61.37 -1.25, 124.34 -0.72, 175.08 -0.86 M176.57 1.1 C177.26 31.37, 175.28 62.96, 176.81 120.72 M175.07 -0.68 C174.19 41.9, 174.54 84.69, 175.19 118.5 M175.83 120.43 C123.85 120.59, 75.57 118.39, -1.68 117.36 M174.52 118.41 C125.61 117.54, 78.89 117.29, 0.63 118.56 M-0.14 119.76 C0.69 90.85, -1.16 63, 0.99 -0.74 M0.29 119.7 C-0.12 89.79, 1.68 61.31, 0.46 0.72" stroke="#000000" stroke-width="1" fill="none"></path></g><g transform="translate(19.600006103515625 300.40000915527344) rotate(0 39 12.5)"><text x="0" y="18" font-family="Virgil, Segoe UI Emoji" font-size="20px" fill="#000000" text-anchor="start" style="white-space: pre;" direction="ltr">Autores</text></g><g transform="translate(23.5999755859375 348.40000915527344) rotate(0 22 37)"><text x="0" y="17.666666666666668" font-family="Virgil, Segoe UI Emoji" font-size="20px" fill="#000000" text-anchor="start" style="white-space: pre;" direction="ltr">id</text><text x="0" y="42.333333333333336" font-family="Virgil, Segoe UI Emoji" font-size="20px" fill="#000000" text-anchor="start" style="white-space: pre;" direction="ltr">nome</text><text x="0" y="67" font-family="Virgil, Segoe UI Emoji" font-size="20px" fill="#000000" text-anchor="start" style="white-space: pre;" direction="ltr">cpf</text></g><g stroke-linecap="round" transform="translate(366 320.59996032714844) rotate(0 77.60000610351562 61.19999694824219)"><path d="M-0.37 0.42 C47.4 -2.09, 97.19 -2.76, 155.03 1.54 M0.01 -0.98 C53.86 0.07, 106 1.31, 155.83 0.17 M155.22 0.39 C152.94 26.14, 154.18 51.77, 156.48 122.06 M155.7 -0.02 C155.21 45.89, 156.36 89.14, 154.73 123.06 M153.28 124.04 C116.54 123.86, 72.71 123.45, -0.33 120.84 M155.96 123.39 C113.77 121.56, 71.97 122.34, -0.77 122.19 M1.96 121.43 C1.07 88.13, -2.57 50.53, -0.4 -0.71 M0.54 122.3 C-0.06 73.94, -1.15 25.97, -0.7 -0.65" stroke="#000000" stroke-width="1" fill="none"></path></g><g transform="translate(357.20001220703125 289.19996643066406) rotate(0 96 12.5)"><text x="0" y="18" font-family="Virgil, Segoe UI Emoji" font-size="20px" fill="#000000" text-anchor="start" style="white-space: pre;" direction="ltr">Artigos_Por_Autor</text></g><g transform="translate(377.20001220703125 327.59996032714844) rotate(0 46 37)"><text x="0" y="17.666666666666668" font-family="Virgil, Segoe UI Emoji" font-size="20px" fill="#000000" text-anchor="start" style="white-space: pre;" direction="ltr">id</text><text x="0" y="42.333333333333336" font-family="Virgil, Segoe UI Emoji" font-size="20px" fill="#000000" text-anchor="start" style="white-space: pre;" direction="ltr">id_autor</text><text x="0" y="67" font-family="Virgil, Segoe UI Emoji" font-size="20px" fill="#000000" text-anchor="start" style="white-space: pre;" direction="ltr">id_artigo</text></g><g stroke-linecap="round"><g transform="translate(202 87.80000305175781) rotate(0 64.95615648120639 11.71686172969639)"><path d="M0.66 -0.8 C22.06 3.2, 106.59 20.32, 128.04 24.23 M-0.45 1.4 C21.37 5.06, 108.8 18.93, 130.36 22.65" stroke="#000000" stroke-width="1" fill="none"></path></g></g><g stroke-linecap="round"><g transform="translate(591.5999755859375 109.4000244140625) rotate(0 49.06323426019401 -3.3255553912371454)"><path d="M0.05 0.57 C16.75 -0.66, 83.05 -5.9, 99.52 -7.22 M-1.39 -0.18 C15.18 -1.21, 81.23 -4.71, 98.31 -5.69" stroke="#000000" stroke-width="1" fill="none"></path></g></g><g stroke-linecap="round"><g transform="translate(799.6000366210938 179.8000030517578) rotate(0 0.8742003591823959 82.23822125224399)"><path d="M0.5 0.01 C0.92 27.33, 2.33 136.51, 2.44 163.98 M-0.7 -1.03 C-0.35 26.49, 1.79 138.18, 1.94 165.51" stroke="#000000" stroke-width="1" fill="none"></path></g></g><g stroke-linecap="round"><g transform="translate(182.79995727539062 391.8000030517578) rotate(0 87.49799706201998 -14.956101009063417)"><path d="M-0.75 -0.69 C28.02 -5.88, 144.23 -26.55, 173.5 -31.48 M1.06 1.56 C30.12 -3.41, 146.86 -24.47, 175.75 -30.08" stroke="#000000" stroke-width="1" fill="none"></path></g><g transform="translate(182.79995727539062 391.8000030517578) rotate(0 87.49799706201998 -14.956101009063417)"><path d="M148.76 -16.33 C159.21 -19.58, 170.93 -25.09, 176.15 -29.36 M149.55 -14.05 C156.08 -17.88, 162.94 -22.2, 174.93 -30.3" stroke="#000000" stroke-width="1" fill="none"></path></g><g transform="translate(182.79995727539062 391.8000030517578) rotate(0 87.49799706201998 -14.956101009063417)"><path d="M145.01 -36.51 C156.81 -32.14, 169.94 -30.06, 176.15 -29.36 M145.8 -34.22 C153.37 -32.72, 161.22 -31.73, 174.93 -30.3" stroke="#000000" stroke-width="1" fill="none"></path></g></g><g stroke-linecap="round"><g transform="translate(692.3999633789062 410.2000274658203) rotate(0 -82.66430434761571 -22.55759605057534)"><path d="M-1 -0.38 C-28.66 -7.89, -137.73 -37.19, -165.25 -44.73 M0.68 -1.63 C-27.17 -8.96, -138.04 -35.97, -166.01 -43.16" stroke="#000000" stroke-width="1" fill="none"></path></g><g transform="translate(692.3999633789062 410.2000274658203) rotate(0 -82.66430434761571 -22.55759605057534)"><path d="M-136.81 -45.7 C-146.76 -46.26, -158.97 -44.38, -165.27 -41.64 M-136.19 -45.45 C-146.92 -45.78, -158.56 -44.14, -166.54 -43.98" stroke="#000000" stroke-width="1" fill="none"></path></g><g transform="translate(692.3999633789062 410.2000274658203) rotate(0 -82.66430434761571 -22.55759605057534)"><path d="M-141.78 -25.79 C-150 -33.46, -160.43 -38.72, -165.27 -41.64 M-141.17 -25.54 C-150.01 -33.18, -159.83 -38.83, -166.54 -43.98" stroke="#000000" stroke-width="1" fill="none"></path></g></g></svg>